<mxfile host="app.diagrams.net" modified="2023-12-22T09:11:37.405Z" agent="Mozilla/5.0 (Windows NT 10.0; Win64; x64) AppleWebKit/537.36 (KHTML, like Gecko) Chrome/120.0.0.0 Safari/537.36" etag="qFE61M6aUoNVp2j_fsAt" version="22.1.11" type="github">
  <diagram name="Page-1" id="9361dd3d-8414-5efd-6122-117bd74ce7a7">
    <mxGraphModel dx="1773" dy="1662" grid="1" gridSize="10" guides="1" tooltips="1" connect="1" arrows="1" fold="1" page="0" pageScale="1.5" pageWidth="826" pageHeight="1169" background="none" math="0" shadow="0">
      <root>
        <mxCell id="0" />
        <mxCell id="1" parent="0" />
        <mxCell id="a6JbuUuHtj-nNJ82leC0-139" value="" style="group" vertex="1" connectable="0" parent="1">
          <mxGeometry x="-800" y="-800" width="820" height="740" as="geometry" />
        </mxCell>
        <mxCell id="a6JbuUuHtj-nNJ82leC0-95" value="myabtis二级缓存核心流程" style="shape=umlFrame;whiteSpace=wrap;html=1;pointerEvents=0;swimlaneFillColor=none;gradientColor=#FF8000;strokeColor=#FF8000;width=230;height=40;fontStyle=1;fontSize=15;fillColor=#1A1A1A;" vertex="1" parent="a6JbuUuHtj-nNJ82leC0-139">
          <mxGeometry width="820" height="740" as="geometry" />
        </mxCell>
        <mxCell id="a6JbuUuHtj-nNJ82leC0-96" value="&lt;div style=&quot;--en-clipboard:true;&quot;&gt;&lt;b&gt;SqlSessionFactoryBuilder&lt;/b&gt;&lt;br&gt;&lt;/div&gt;" style="shape=umlLifeline;perimeter=lifelinePerimeter;whiteSpace=wrap;html=1;container=1;dropTarget=0;collapsible=0;recursiveResize=0;outlineConnect=0;portConstraint=eastwest;newEdgeStyle={&quot;curved&quot;:0,&quot;rounded&quot;:0};fillColor=#ffe6cc;strokeColor=#d79b00;" vertex="1" parent="a6JbuUuHtj-nNJ82leC0-139">
          <mxGeometry x="68" y="80" width="160" height="660" as="geometry" />
        </mxCell>
        <mxCell id="a6JbuUuHtj-nNJ82leC0-99" value="" style="html=1;points=[[0,0,0,0,5],[0,1,0,0,-5],[1,0,0,0,5],[1,1,0,0,-5]];perimeter=orthogonalPerimeter;outlineConnect=0;targetShapes=umlLifeline;portConstraint=eastwest;newEdgeStyle={&quot;curved&quot;:0,&quot;rounded&quot;:0};fillColor=#ffe6cc;strokeColor=#d79b00;" vertex="1" parent="a6JbuUuHtj-nNJ82leC0-96">
          <mxGeometry x="75" y="70" width="10" height="60" as="geometry" />
        </mxCell>
        <mxCell id="a6JbuUuHtj-nNJ82leC0-113" value="" style="html=1;points=[[0,0,0,0,5],[0,1,0,0,-5],[1,0,0,0,5],[1,1,0,0,-5]];perimeter=orthogonalPerimeter;outlineConnect=0;targetShapes=umlLifeline;portConstraint=eastwest;newEdgeStyle={&quot;curved&quot;:0,&quot;rounded&quot;:0};fillColor=#ffe6cc;strokeColor=#d79b00;" vertex="1" parent="a6JbuUuHtj-nNJ82leC0-96">
          <mxGeometry x="75" y="150" width="10" height="40" as="geometry" />
        </mxCell>
        <mxCell id="a6JbuUuHtj-nNJ82leC0-97" value="" style="line;strokeWidth=1;fillColor=#ffcd28;align=left;verticalAlign=middle;spacingTop=-1;spacingLeft=3;spacingRight=3;rotatable=0;labelPosition=right;points=[];portConstraint=eastwest;strokeColor=#d79b00;dashed=1;gradientColor=#ffa500;" vertex="1" parent="a6JbuUuHtj-nNJ82leC0-139">
          <mxGeometry x="120" y="670" width="430" height="8" as="geometry" />
        </mxCell>
        <mxCell id="a6JbuUuHtj-nNJ82leC0-98" value="&lt;div style=&quot;--en-clipboard:true;&quot;&gt;&lt;b&gt;XMLMapperBuilder&lt;/b&gt;&lt;br&gt;&lt;/div&gt;" style="shape=umlLifeline;perimeter=lifelinePerimeter;whiteSpace=wrap;html=1;container=1;dropTarget=0;collapsible=0;recursiveResize=0;outlineConnect=0;portConstraint=eastwest;newEdgeStyle={&quot;curved&quot;:0,&quot;rounded&quot;:0};fillColor=#d5e8d4;strokeColor=#82b366;gradientColor=#97d077;" vertex="1" parent="a6JbuUuHtj-nNJ82leC0-139">
          <mxGeometry x="475" y="80" width="120" height="640" as="geometry" />
        </mxCell>
        <mxCell id="a6JbuUuHtj-nNJ82leC0-121" value="" style="html=1;points=[[0,0,0,0,5],[0,1,0,0,-5],[1,0,0,0,5],[1,1,0,0,-5]];perimeter=orthogonalPerimeter;outlineConnect=0;targetShapes=umlLifeline;portConstraint=eastwest;newEdgeStyle={&quot;curved&quot;:0,&quot;rounded&quot;:0};fillColor=#d5e8d4;gradientColor=#97d077;strokeColor=#82b366;" vertex="1" parent="a6JbuUuHtj-nNJ82leC0-98">
          <mxGeometry x="55" y="324" width="10" height="56" as="geometry" />
        </mxCell>
        <mxCell id="a6JbuUuHtj-nNJ82leC0-130" value="" style="html=1;points=[[0,0,0,0,5],[0,1,0,0,-5],[1,0,0,0,5],[1,1,0,0,-5]];perimeter=orthogonalPerimeter;outlineConnect=0;targetShapes=umlLifeline;portConstraint=eastwest;newEdgeStyle={&quot;curved&quot;:0,&quot;rounded&quot;:0};fillColor=#d5e8d4;gradientColor=#97d077;strokeColor=#82b366;" vertex="1" parent="a6JbuUuHtj-nNJ82leC0-98">
          <mxGeometry x="55" y="400" width="10" height="190" as="geometry" />
        </mxCell>
        <mxCell id="a6JbuUuHtj-nNJ82leC0-100" value="&lt;div&gt;&lt;b&gt;&lt;font color=&quot;#ff8000&quot;&gt;SqlSessionFactory#build&lt;/font&gt;&lt;/b&gt;&lt;/div&gt;" style="html=1;verticalAlign=bottom;endArrow=block;curved=0;rounded=0;dashed=1;strokeWidth=2;strokeColor=#FF8000;" edge="1" parent="a6JbuUuHtj-nNJ82leC0-139" target="a6JbuUuHtj-nNJ82leC0-96">
          <mxGeometry width="80" relative="1" as="geometry">
            <mxPoint y="150" as="sourcePoint" />
            <mxPoint x="80" y="150" as="targetPoint" />
          </mxGeometry>
        </mxCell>
        <mxCell id="a6JbuUuHtj-nNJ82leC0-104" value="&lt;div style=&quot;--en-clipboard:true;&quot;&gt;&lt;b&gt;XMLConfigBuilder&lt;/b&gt;&lt;br&gt;&lt;/div&gt;" style="shape=umlLifeline;perimeter=lifelinePerimeter;whiteSpace=wrap;html=1;container=1;dropTarget=0;collapsible=0;recursiveResize=0;outlineConnect=0;portConstraint=eastwest;newEdgeStyle={&quot;curved&quot;:0,&quot;rounded&quot;:0};fillColor=#ffcd28;strokeColor=#d79b00;gradientColor=#ffa500;" vertex="1" parent="a6JbuUuHtj-nNJ82leC0-139">
          <mxGeometry x="290" y="80" width="120" height="650" as="geometry" />
        </mxCell>
        <mxCell id="a6JbuUuHtj-nNJ82leC0-105" value="" style="html=1;points=[[0,0,0,0,5],[0,1,0,0,-5],[1,0,0,0,5],[1,1,0,0,-5]];perimeter=orthogonalPerimeter;outlineConnect=0;targetShapes=umlLifeline;portConstraint=eastwest;newEdgeStyle={&quot;curved&quot;:0,&quot;rounded&quot;:0};fillColor=#ffcd28;strokeColor=#d79b00;gradientColor=#ffa500;" vertex="1" parent="a6JbuUuHtj-nNJ82leC0-104">
          <mxGeometry x="55" y="87" width="10" height="43" as="geometry" />
        </mxCell>
        <mxCell id="a6JbuUuHtj-nNJ82leC0-114" value="" style="html=1;points=[[0,0,0,0,5],[0,1,0,0,-5],[1,0,0,0,5],[1,1,0,0,-5]];perimeter=orthogonalPerimeter;outlineConnect=0;targetShapes=umlLifeline;portConstraint=eastwest;newEdgeStyle={&quot;curved&quot;:0,&quot;rounded&quot;:0};fillColor=#ffcd28;strokeColor=#d79b00;gradientColor=#ffa500;" vertex="1" parent="a6JbuUuHtj-nNJ82leC0-104">
          <mxGeometry x="55" y="160" width="10" height="180" as="geometry" />
        </mxCell>
        <mxCell id="a6JbuUuHtj-nNJ82leC0-125" value="" style="html=1;points=[[0,0,0,0,5],[0,1,0,0,-5],[1,0,0,0,5],[1,1,0,0,-5]];perimeter=orthogonalPerimeter;outlineConnect=0;targetShapes=umlLifeline;portConstraint=eastwest;newEdgeStyle={&quot;curved&quot;:0,&quot;rounded&quot;:0};fillColor=#ffcd28;gradientColor=#ffa500;strokeColor=#d79b00;" vertex="1" parent="a6JbuUuHtj-nNJ82leC0-104">
          <mxGeometry x="55" y="350" width="10" height="30" as="geometry" />
        </mxCell>
        <mxCell id="a6JbuUuHtj-nNJ82leC0-128" value="" style="html=1;points=[[0,0,0,0,5],[0,1,0,0,-5],[1,0,0,0,5],[1,1,0,0,-5]];perimeter=orthogonalPerimeter;outlineConnect=0;targetShapes=umlLifeline;portConstraint=eastwest;newEdgeStyle={&quot;curved&quot;:0,&quot;rounded&quot;:0};fillColor=#ffcd28;gradientColor=#ffa500;strokeColor=#d79b00;" vertex="1" parent="a6JbuUuHtj-nNJ82leC0-104">
          <mxGeometry x="55" y="408" width="10" height="20" as="geometry" />
        </mxCell>
        <mxCell id="a6JbuUuHtj-nNJ82leC0-135" value="" style="html=1;points=[[0,0,0,0,5],[0,1,0,0,-5],[1,0,0,0,5],[1,1,0,0,-5]];perimeter=orthogonalPerimeter;outlineConnect=0;targetShapes=umlLifeline;portConstraint=eastwest;newEdgeStyle={&quot;curved&quot;:0,&quot;rounded&quot;:0};fillColor=#ffcd28;gradientColor=#ffa500;strokeColor=#d79b00;" vertex="1" parent="a6JbuUuHtj-nNJ82leC0-104">
          <mxGeometry x="55" y="594" width="10" height="20" as="geometry" />
        </mxCell>
        <mxCell id="a6JbuUuHtj-nNJ82leC0-109" value="1.初始化XMLConfigBuilder对象&lt;br&gt;&lt;font color=&quot;#000000&quot;&gt;new XMLConfigBuilder&lt;/font&gt;" style="html=1;verticalAlign=bottom;endArrow=block;curved=0;rounded=0;fillColor=#fff2cc;gradientColor=#ffd966;strokeColor=#d6b656;fontStyle=1;fontColor=#FF8000;" edge="1" parent="a6JbuUuHtj-nNJ82leC0-139">
          <mxGeometry width="80" relative="1" as="geometry">
            <mxPoint x="154" y="165" as="sourcePoint" />
            <mxPoint x="349.5" y="165" as="targetPoint" />
          </mxGeometry>
        </mxCell>
        <mxCell id="a6JbuUuHtj-nNJ82leC0-111" value="&lt;font color=&quot;#994c00&quot;&gt;2、带有XpathParser解析器的&lt;br&gt;XMLConfigBuilder对象&lt;/font&gt;" style="html=1;verticalAlign=bottom;endArrow=open;dashed=1;endSize=8;curved=0;rounded=0;fontStyle=1;fontColor=#FF8000;strokeColor=#d6b656;fillColor=#fff2cc;gradientColor=#ffd966;" edge="1" parent="a6JbuUuHtj-nNJ82leC0-139" target="a6JbuUuHtj-nNJ82leC0-99">
          <mxGeometry x="0.0052" relative="1" as="geometry">
            <mxPoint x="344" y="200" as="sourcePoint" />
            <mxPoint x="160" y="200" as="targetPoint" />
            <mxPoint as="offset" />
          </mxGeometry>
        </mxCell>
        <mxCell id="a6JbuUuHtj-nNJ82leC0-115" value="&lt;font color=&quot;#000000&quot;&gt;3.调用XMLConfigBuilder#parse()&lt;/font&gt;" style="html=1;verticalAlign=bottom;endArrow=block;curved=0;rounded=0;fontColor=#FF8000;strokeColor=#d6b656;fillColor=#fff2cc;gradientColor=#ffd966;fontStyle=1" edge="1" parent="a6JbuUuHtj-nNJ82leC0-139" target="a6JbuUuHtj-nNJ82leC0-104">
          <mxGeometry width="80" relative="1" as="geometry">
            <mxPoint x="153" y="240" as="sourcePoint" />
            <mxPoint x="233" y="240" as="targetPoint" />
          </mxGeometry>
        </mxCell>
        <mxCell id="a6JbuUuHtj-nNJ82leC0-117" value="&lt;font color=&quot;#000000&quot;&gt;4.parseConfiguration&lt;/font&gt;&lt;br&gt;解析mybatis全局配置文件" style="html=1;align=left;spacingLeft=2;endArrow=block;rounded=0;edgeStyle=orthogonalEdgeStyle;curved=0;rounded=0;fillColor=#fff2cc;gradientColor=#ffd966;strokeColor=#d6b656;fontColor=#994C00;fontStyle=1" edge="1" parent="a6JbuUuHtj-nNJ82leC0-139" target="a6JbuUuHtj-nNJ82leC0-114">
          <mxGeometry relative="1" as="geometry">
            <mxPoint x="355" y="250" as="sourcePoint" />
            <Array as="points">
              <mxPoint x="385" y="250" />
              <mxPoint x="385" y="280" />
            </Array>
            <mxPoint x="355" y="280" as="targetPoint" />
            <mxPoint as="offset" />
          </mxGeometry>
        </mxCell>
        <mxCell id="a6JbuUuHtj-nNJ82leC0-119" value="全局配置文件&lt;br&gt;&lt;font color=&quot;#ff6666&quot;&gt;mybati-config.xml&lt;br&gt;&lt;/font&gt;两个标签：&lt;br&gt;&amp;lt;&lt;font color=&quot;#007fff&quot;&gt;setting&lt;/font&gt;&amp;gt;和&amp;lt;&lt;font color=&quot;#3399ff&quot;&gt;mapper&lt;/font&gt;&amp;gt;" style="ellipse;shape=cloud;whiteSpace=wrap;html=1;fillColor=#ffcd28;gradientColor=#ffa500;strokeColor=#d79b00;fontStyle=1" vertex="1" parent="a6JbuUuHtj-nNJ82leC0-139">
          <mxGeometry x="347" y="120" width="190" height="130" as="geometry" />
        </mxCell>
        <mxCell id="a6JbuUuHtj-nNJ82leC0-122" value="&lt;b style=&quot;&quot;&gt;&lt;font color=&quot;#994c00&quot;&gt;7.初始化XMLMapperBuilder对象&lt;br&gt;new XMLMapperBuilder&lt;/font&gt;&lt;/b&gt;" style="html=1;verticalAlign=bottom;endArrow=block;curved=0;rounded=0;fillColor=#d5e8d4;gradientColor=#97d077;strokeColor=#994C00;" edge="1" parent="a6JbuUuHtj-nNJ82leC0-139">
          <mxGeometry width="80" relative="1" as="geometry">
            <mxPoint x="354" y="405" as="sourcePoint" />
            <mxPoint x="532.5" y="405" as="targetPoint" />
          </mxGeometry>
        </mxCell>
        <mxCell id="a6JbuUuHtj-nNJ82leC0-123" value="&lt;b&gt;5.settingsAsProperties&lt;font color=&quot;#994c00&quot;&gt;&lt;br&gt;解析&lt;/font&gt;&lt;font color=&quot;#3399ff&quot; style=&quot;border-color: var(--border-color);&quot;&gt;setting&lt;/font&gt;&lt;span style=&quot;color: rgb(153, 76, 0);&quot;&gt;标签&lt;/span&gt;&lt;/b&gt;" style="html=1;align=left;spacingLeft=2;endArrow=block;rounded=0;edgeStyle=orthogonalEdgeStyle;curved=0;rounded=0;strokeColor=#d6b656;fillColor=#fff2cc;gradientColor=#ffd966;" edge="1" parent="a6JbuUuHtj-nNJ82leC0-139">
          <mxGeometry relative="1" as="geometry">
            <mxPoint x="355" y="294" as="sourcePoint" />
            <Array as="points">
              <mxPoint x="385" y="324" />
            </Array>
            <mxPoint x="355" y="324" as="targetPoint" />
            <mxPoint as="offset" />
          </mxGeometry>
        </mxCell>
        <mxCell id="a6JbuUuHtj-nNJ82leC0-124" value="&lt;b&gt;6.mapperElement&lt;font color=&quot;#994c00&quot;&gt;&lt;br&gt;解析&lt;/font&gt;&lt;font color=&quot;#3399ff&quot; style=&quot;border-color: var(--border-color);&quot;&gt;mapper&lt;/font&gt;&lt;span style=&quot;color: rgb(153, 76, 0);&quot;&gt;标签&lt;/span&gt;&lt;/b&gt;" style="html=1;align=left;spacingLeft=2;endArrow=block;rounded=0;edgeStyle=orthogonalEdgeStyle;curved=0;rounded=0;strokeColor=#d6b656;fillColor=#fff2cc;gradientColor=#ffd966;" edge="1" parent="a6JbuUuHtj-nNJ82leC0-139">
          <mxGeometry relative="1" as="geometry">
            <mxPoint x="356" y="334" as="sourcePoint" />
            <Array as="points">
              <mxPoint x="386" y="364" />
            </Array>
            <mxPoint x="356" y="364" as="targetPoint" />
            <mxPoint as="offset" />
          </mxGeometry>
        </mxCell>
        <mxCell id="a6JbuUuHtj-nNJ82leC0-126" value="&lt;b&gt;&lt;font color=&quot;#00cc00&quot;&gt;8、带有XpathParser解析器的&lt;br style=&quot;border-color: var(--border-color);&quot;&gt;XMLMapperBuilder对象&lt;/font&gt;&lt;/b&gt;" style="html=1;verticalAlign=bottom;endArrow=open;dashed=1;endSize=8;curved=0;rounded=0;fillColor=#d5e8d4;gradientColor=#97d077;strokeColor=#82b366;" edge="1" parent="a6JbuUuHtj-nNJ82leC0-139">
          <mxGeometry relative="1" as="geometry">
            <mxPoint x="526" y="458" as="sourcePoint" />
            <mxPoint x="356" y="459" as="targetPoint" />
          </mxGeometry>
        </mxCell>
        <mxCell id="a6JbuUuHtj-nNJ82leC0-129" value="9.调用XMLMapperBuilder#parse()" style="html=1;verticalAlign=bottom;endArrow=block;curved=0;rounded=0;fillColor=#ffcd28;gradientColor=#ffa500;strokeColor=#d79b00;" edge="1" parent="a6JbuUuHtj-nNJ82leC0-139" target="a6JbuUuHtj-nNJ82leC0-98">
          <mxGeometry width="80" relative="1" as="geometry">
            <mxPoint x="356" y="490" as="sourcePoint" />
            <mxPoint x="436" y="490" as="targetPoint" />
          </mxGeometry>
        </mxCell>
        <mxCell id="a6JbuUuHtj-nNJ82leC0-131" value="&lt;font color=&quot;#000000&quot;&gt;10.configurationElement&lt;/font&gt;&lt;br&gt;&lt;font color=&quot;#00cc00&quot;&gt;从&amp;lt;mapper&amp;gt;节点解析xxxMapper.xml映射文件&lt;/font&gt;" style="html=1;align=left;spacingLeft=2;endArrow=block;rounded=0;edgeStyle=orthogonalEdgeStyle;curved=0;rounded=0;fillColor=#d5e8d4;gradientColor=#97d077;strokeColor=#82b366;fontColor=#994C00;fontStyle=1" edge="1" parent="a6JbuUuHtj-nNJ82leC0-139">
          <mxGeometry relative="1" as="geometry">
            <mxPoint x="539" y="500" as="sourcePoint" />
            <Array as="points">
              <mxPoint x="569" y="500" />
              <mxPoint x="569" y="530" />
            </Array>
            <mxPoint x="539" y="530" as="targetPoint" />
            <mxPoint as="offset" />
          </mxGeometry>
        </mxCell>
        <mxCell id="a6JbuUuHtj-nNJ82leC0-132" value="xxxMapper.xml配置文件&lt;font color=&quot;#ff6666&quot;&gt;&lt;br&gt;&lt;/font&gt;核心标签：&amp;lt;&lt;font color=&quot;#3399ff&quot;&gt;mapper&lt;/font&gt;&amp;gt;" style="ellipse;shape=cloud;whiteSpace=wrap;html=1;fillColor=#d5e8d4;gradientColor=#97d077;strokeColor=#82b366;fontStyle=1" vertex="1" parent="a6JbuUuHtj-nNJ82leC0-139">
          <mxGeometry x="550" y="370" width="190" height="130" as="geometry" />
        </mxCell>
        <mxCell id="a6JbuUuHtj-nNJ82leC0-133" value="&lt;font color=&quot;#000000&quot;&gt;11.bindMapperForNamespace()&lt;/font&gt;&lt;br&gt;&lt;font color=&quot;#00cc00&quot;&gt;绑定Mapper操作接口和命名空间(当前配置)的关系&lt;/font&gt;" style="html=1;align=left;spacingLeft=2;endArrow=block;rounded=0;edgeStyle=orthogonalEdgeStyle;curved=0;rounded=0;fillColor=#d5e8d4;gradientColor=#97d077;strokeColor=#82b366;fontColor=#994C00;fontStyle=1" edge="1" parent="a6JbuUuHtj-nNJ82leC0-139">
          <mxGeometry relative="1" as="geometry">
            <mxPoint x="540" y="550" as="sourcePoint" />
            <Array as="points">
              <mxPoint x="570" y="550" />
              <mxPoint x="570" y="580" />
            </Array>
            <mxPoint x="540" y="580" as="targetPoint" />
            <mxPoint as="offset" />
          </mxGeometry>
        </mxCell>
        <mxCell id="a6JbuUuHtj-nNJ82leC0-134" value="&lt;font color=&quot;#00cc00&quot;&gt;12.解析之前未解析完的&lt;br&gt;ResultMap、缓存引用cacheRef&lt;br&gt;处理语句statements&lt;/font&gt;" style="html=1;align=left;spacingLeft=2;endArrow=block;rounded=0;edgeStyle=orthogonalEdgeStyle;curved=0;rounded=0;fillColor=#d5e8d4;gradientColor=#97d077;strokeColor=#82b366;fontColor=#994C00;fontStyle=1" edge="1" parent="a6JbuUuHtj-nNJ82leC0-139">
          <mxGeometry relative="1" as="geometry">
            <mxPoint x="540" y="600" as="sourcePoint" />
            <Array as="points">
              <mxPoint x="570" y="600" />
              <mxPoint x="570" y="630" />
            </Array>
            <mxPoint x="540" y="630" as="targetPoint" />
            <mxPoint as="offset" />
          </mxGeometry>
        </mxCell>
        <mxCell id="a6JbuUuHtj-nNJ82leC0-137" value="&lt;b&gt;&lt;font color=&quot;#ff3333&quot;&gt;13.返回parse方法执行结果&lt;/font&gt;&lt;/b&gt;" style="html=1;verticalAlign=bottom;endArrow=open;dashed=1;endSize=8;curved=0;rounded=0;fillColor=#f8cecc;gradientColor=#ea6b66;strokeColor=#b85450;" edge="1" parent="a6JbuUuHtj-nNJ82leC0-139">
          <mxGeometry relative="1" as="geometry">
            <mxPoint x="344" y="685" as="sourcePoint" />
            <mxPoint x="160" y="685" as="targetPoint" />
          </mxGeometry>
        </mxCell>
        <mxCell id="a6JbuUuHtj-nNJ82leC0-138" value="&lt;b&gt;把mybatis-config.xml和xxxMapper.xml内容封装在Configuration对象中&lt;/b&gt;" style="ellipse;shape=cloud;whiteSpace=wrap;html=1;fillColor=#f8cecc;gradientColor=#ea6b66;strokeColor=#b85450;" vertex="1" parent="a6JbuUuHtj-nNJ82leC0-139">
          <mxGeometry x="140" y="560" width="200" height="110" as="geometry" />
        </mxCell>
        <mxCell id="a6JbuUuHtj-nNJ82leC0-136" value="" style="html=1;points=[[0,0,0,0,5],[0,1,0,0,-5],[1,0,0,0,5],[1,1,0,0,-5]];perimeter=orthogonalPerimeter;outlineConnect=0;targetShapes=umlLifeline;portConstraint=eastwest;newEdgeStyle={&quot;curved&quot;:0,&quot;rounded&quot;:0};fillColor=#ffe6cc;strokeColor=#d79b00;" vertex="1" parent="a6JbuUuHtj-nNJ82leC0-139">
          <mxGeometry x="140" y="678" width="15" height="30" as="geometry" />
        </mxCell>
      </root>
    </mxGraphModel>
  </diagram>
</mxfile>
